<svg width="80" height="80" viewBox="0 0 80 80" xmlns="http://www.w3.org/2000/svg">
  <defs>
    <linearGradient id="shine" x1="0%" y1="0%" x2="100%" y2="100%">
      <stop offset="0%" stop-color="white" stop-opacity="0" />
      <stop offset="50%" stop-color="white" stop-opacity="0.6" />
      <stop offset="100%" stop-color="white" stop-opacity="0" />
    </linearGradient>

    <mask id="shine-mask">
      <rect x="0" y="0" width="80" height="80" fill="url(#shine)">
        <animateTransform attributeName="transform" type="translate" from="-80 0" to="80 0" dur="2s" repeatCount="indefinite" />
      </rect>
    </mask>
  </defs>

  <!-- Medal ribbon -->
  <path d="M30,15 L40,35 L50,15" fill="#9750dd" stroke="#6a0dad" stroke-width="2"/>
  <path d="M30,15 L25,5 L35,5 Z" fill="#9750dd" stroke="#6a0dad" stroke-width="2"/>
  <path d="M50,15 L45,5 L55,5 Z" fill="#9750dd" stroke="#6a0dad" stroke-width="2"/>
  
  <!-- Medal body -->
  <circle cx="40" cy="50" r="20" fill="#ffc800" stroke="#6a0dad" stroke-width="2" />
  <circle cx="40" cy="50" r="15" fill="#ffc800" stroke="#6a0dad" stroke-width="1.5" />

  <!-- Shine effect over medal body -->
  <circle cx="40" cy="50" r="20" fill="white" mask="url(#shine-mask)" />

  <!-- Star decoration -->
  <polygon points="40,37 44,46 54,46 46,52 49,62 40,56 31,62 34,52 26,46 36,46" fill="#ffffff" stroke="#6a0dad" stroke-width="1"/>
  
  <!-- Decorative shine -->
  <path d="M30,42 L35,48" stroke="#ffffff" stroke-width="1.5" stroke-opacity="0.7"/>
  <path d="M45,42 L47,50" stroke="#ffffff" stroke-width="1.5" stroke-opacity="0.7"/>
</svg>
