<?xml version="1.0" encoding="UTF-8"?>
<svg width="100px" height="100px" viewBox="0 0 100 100" xmlns="http://www.w3.org/2000/svg">
  <style>
    .primary { fill: #6A0DAD; }
    .secondary { fill: #F9D423; }
    .accent { fill: #FF4F79; }
    .base { fill: #444; }
    .bronze { fill: #CD7F32; }
    .silver { fill: #C0C0C0; }
    .gold { fill: #FFC107; }
    
    /* Star shooting animation */
    .shoot-star {
      fill: #FFD700;
    }
  </style>

  <!-- Trophy with bounce animation -->
  <g transform="translate(60, 15)">
    <g>
      <animateTransform attributeName="transform" type="translate" values="60,15;60,12;60,15" dur="1s" repeatCount="indefinite"/>
      <g transform="translate(-20, 0) scale(0.4)">
        <path class="gold" d="M25,20 L55,20 L55,35 C55,45 40,50 40,50 C40,50 25,45 25,35 Z" />
        <path class="gold" d="M55,25 C65,25 70,30 65,35 L55,35" />
        <path class="gold" d="M25,25 C15,25 10,30 15,35 L25,35" />
        <path class="base" d="M35,50 L45,50 L45,60 L35,60 Z" />
      </g>
    </g>
  </g>

  <!-- Animated light rays -->
  <g>
    <path d="M60 25 L60 20" stroke="#FFC107" stroke-width="0.8">
      <animate attributeName="opacity" values="1;0;1" dur="1.2s" repeatCount="indefinite" />
    </path>
    <path d="M54 27 L51 23" stroke="#FFC107" stroke-width="0.8">
      <animate attributeName="opacity" values="1;0;1" dur="1.5s" repeatCount="indefinite" />
    </path>
    <path d="M66 27 L69 23" stroke="#FFC107" stroke-width="0.8">
      <animate attributeName="opacity" values="1;0;1" dur="1.4s" repeatCount="indefinite" />
    </path>
  </g>

  <!-- Podium platforms -->
  <rect class="silver" x="25" y="50" width="20" height="30" rx="2" />
  <rect class="gold" x="50" y="40" width="20" height="40" rx="2" />
  <rect class="bronze" x="75" y="60" width="20" height="20" rx="2" />

  <!-- Podium shadows -->
  <rect fill="rgba(0,0,0,0.1)" x="25" y="78" width="20" height="2" />
  <rect fill="rgba(0,0,0,0.1)" x="50" y="78" width="20" height="2" />
  <rect fill="rgba(0,0,0,0.1)" x="75" y="78" width="20" height="2" />

  <!-- Winners -->
  <g transform="translate(35, 40)">
    <circle class="primary" cx="0" cy="0" r="8" />
    <text x="0" y="4" font-family="Arial" font-size="10" font-weight="bold" text-anchor="middle" fill="#fff">2</text>
  </g>

  <g transform="translate(60, 30)">
    <circle class="accent" cx="0" cy="0" r="8" />
    <text x="0" y="4" font-family="Arial" font-size="10" font-weight="bold" text-anchor="middle" fill="#fff">1</text>
    <!-- Shooting stars from first place -->
    <polygon class="shoot-star" points="0,-3 1,-1 3,0 1,1 0,3 -1,1 -3,0 -1,-1">
      <animateTransform attributeName="transform" type="translate" values="0,0; 10,-10" dur="2s" repeatCount="indefinite" />
      <animate attributeName="opacity" values="1;0" dur="2s" repeatCount="indefinite"/>
    </polygon>
    <polygon class="shoot-star" points="0,-3 1,-1 3,0 1,1 0,3 -1,1 -3,0 -1,-1">
      <animateTransform attributeName="transform" type="translate" values="0,0; -10,-10" dur="2.5s" repeatCount="indefinite" />
      <animate attributeName="opacity" values="1;0" dur="2.5s" repeatCount="indefinite"/>
    </polygon>
    <polygon class="shoot-star" points="0,-3 1,-1 3,0 1,1 0,3 -1,1 -3,0 -1,-1">
      <animateTransform attributeName="transform" type="translate" values="0,0; 15,-15" dur="3s" repeatCount="indefinite" />
      <animate attributeName="opacity" values="1;0" dur="3s" repeatCount="indefinite"/>
    </polygon>
    <polygon class="shoot-star" points="0,-3 1,-1 3,0 1,1 0,3 -1,1 -3,0 -1,-1">
      <animateTransform attributeName="transform" type="translate" values="0,0; -15,-15" dur="3.5s" repeatCount="indefinite" />
      <animate attributeName="opacity" values="1;0" dur="3.5s" repeatCount="indefinite"/>
    </polygon>
  </g>

  <g transform="translate(85, 50)">
    <circle class="secondary" cx="0" cy="0" r="8" />
    <text x="0" y="4" font-family="Arial" font-size="10" font-weight="bold" text-anchor="middle" fill="#444">3</text>
  </g>
</svg>
