<svg width="80" height="80" viewBox="0 0 80 80" xmlns="http://www.w3.org/2000/svg">
  <style>
    .trophy-body {
      fill: #ffc800;
      stroke: #9750dd;
      stroke-width: 2;
    }

    .trophy-handle {
      fill: none;
      stroke: #9750dd;
      stroke-width: 2;
    }

    .confetti {
      animation: fall 2.5s linear infinite;
      opacity: 0;
    }

    @keyframes fall {
      0% {
        transform: translateY(0px) rotate(0deg);
        opacity: 1;
      }
      100% {
        transform: translateY(100px) rotate(360deg);
        opacity: 0;
      }
    }
  </style>

  <!-- Trophy cup -->
  <g>
    <path class="trophy-body" d="M25 20h30v5c0 8-6 15-15 15s-15-7-15-15v-5z"/>
    <path class="trophy-body" d="M25 20v-3h30v3"/>
  </g>

  <!-- Handles -->
  <path class="trophy-handle" d="M25 22c-5 0-8 3-8 8s3 8 8 8"/>
  <path class="trophy-handle" d="M55 22c5 0 8 3 8 8s-3 8-8 8"/>

  <!-- Base -->
  <rect class="trophy-body" x="35" y="40" width="10" height="5"/>
  <path class="trophy-body" d="M32 45h16v5H32z"/>

  <!-- Star -->
  <circle class="trophy-body" cx="40" cy="15" r="5"/>
  <polygon fill="#ffc800" stroke="#9750dd" stroke-width="1"
           points="40,10 42,15 47,15 43,18 45,23 40,20 35,23 37,18 33,15 38,15"/>

  <!-- Confetti -->
  <circle class="confetti" cx="10" cy="0" r="1.5" fill="#FF4F79" style="animation-delay: 0s"/>
  <rect class="confetti" x="20" y="0" width="1.5" height="1.5" fill="#6A0DAD" style="animation-delay: 0.4s"/>
  <circle class="confetti" cx="30" cy="-5" r="2" fill="#F9D423" style="animation-delay: 0.8s"/>
  <rect class="confetti" x="40" y="-10" width="2" height="2" fill="#FF4F79" style="animation-delay: 1.2s"/>
  <circle class="confetti" cx="50" cy="-15" r="1.8" fill="#6A0DAD" style="animation-delay: 1.6s"/>
  <rect class="confetti" x="60" y="-20" width="1.8" height="1.8" fill="#F9D423" style="animation-delay: 2s"/>
  <circle class="confetti" cx="70" cy="-25" r="2" fill="#FF4F79" style="animation-delay: 2.4s"/>
</svg>
